<svg width="301" height="532" viewBox="0 0 301 532" fill="none" xmlns="http://www.w3.org/2000/svg">
<path d="M301 171C301 265.441 234.067 361.046 151.5 361.046C68.9335 361.046 2.00006 265.441 2.00006 171C2.00006 76.5593 68.9335 0 151.5 0C234.067 0 301 76.5593 301 171Z" fill="#FD9B00"/>
<path d="M157.791 463.045C157.935 456.83 157.086 450.632 155.275 444.685C155.154 444.276 155.021 443.876 154.88 443.465C154.112 441.112 153.187 438.814 152.112 436.585C148.337 428.553 142.466 421.687 135.117 416.711C134.973 416.621 134.839 416.532 134.705 416.442C137.53 409.905 138.822 402.808 138.481 395.695C137.693 381.435 130.672 368.304 121.853 357.372C105.498 337.082 81.4244 323.961 65.6231 303.349C65.4209 303.085 65.2096 302.809 65.0086 302.534C64.7972 302.259 64.5964 301.974 64.3858 301.689C62.3001 298.845 60.4053 295.866 58.7141 292.772C55.8313 287.453 53.5183 281.845 51.8138 276.04C51.2229 274.024 50.6948 271.972 50.2473 269.916C49.797 267.899 49.4176 265.868 49.1094 263.821C48.8093 261.806 48.5731 259.784 48.4007 257.757C48.2302 255.75 48.1269 253.738 48.0909 251.721C48.0506 249.713 48.0737 247.71 48.16 245.711C48.5794 235.937 50.5393 226.29 53.9673 217.127C54.0805 216.804 54.2021 216.491 54.3352 216.17C54.4576 215.848 54.5805 215.525 54.7131 215.204C54.8234 214.921 54.9326 214.648 55.0527 214.366C60.6364 200.882 69.6787 189.836 80.5821 180.273C87.3955 174.293 94.6838 168.838 101.721 163.105C101.975 162.902 102.231 162.69 102.487 162.477C102.752 162.265 103.028 162.044 103.294 161.822C107.751 158.197 112.004 154.328 116.033 150.232C118.367 147.832 120.562 145.301 122.608 142.652C124.05 140.808 125.407 138.888 126.668 136.921C127.882 135.041 129.002 133.115 130.029 131.141C131.013 129.245 131.912 127.293 132.702 125.314C133.471 123.393 134.133 121.431 134.686 119.438C135.233 117.49 135.663 115.512 135.973 113.513C135.982 113.495 135.987 113.474 135.987 113.454C137.621 103.252 135.256 92.8129 129.383 84.3123C129.165 83.9863 128.936 83.6696 128.698 83.3523C128.47 83.0256 128.232 82.7082 127.983 82.4C126.763 80.8069 125.427 79.3063 123.986 77.9104C108.585 62.8999 87.3117 59.057 67.9038 51.4651C67.5917 51.3431 67.2894 51.2217 66.9768 51.0996C66.6557 50.9669 66.3334 50.8441 66.0118 50.7114C61.0132 48.728 56.1945 46.3184 51.6088 43.5094C51.5511 43.4753 51.5034 43.4419 51.4456 43.4078C48.8552 41.7822 46.4018 39.9478 44.11 37.9229C41.8914 35.9709 39.8606 33.8153 38.0443 31.4842C37.5748 30.8901 37.1258 30.2873 36.6974 29.6759C35.6843 28.2518 33.7348 29.7495 34.224 31.2172C34.2699 31.3728 34.3408 31.52 34.4339 31.6529C35.9172 33.7593 37.565 35.7448 39.3618 37.591C41.7129 40.0132 44.2884 42.2072 47.0535 44.1433C52.444 47.8356 58.2455 50.8886 64.3411 53.241C64.6627 53.3738 64.985 53.4965 65.3066 53.6293C65.6187 53.7513 65.9312 53.8734 66.2535 53.9962C78.0125 58.5774 90.5745 61.8514 101.67 66.8974C110.064 70.712 118.432 75.7679 124.505 82.8186C124.755 83.1167 125.005 83.4148 125.245 83.7123C125.495 84.0105 125.734 84.3179 125.973 84.6253C127.43 86.5243 128.704 88.5567 129.779 90.6955C133.18 97.7112 134.276 105.623 132.91 113.299C132.594 115.298 132.154 117.276 131.594 119.221C131.018 121.217 130.326 123.177 129.52 125.091C128.795 126.855 127.973 128.572 127.084 130.254C126.968 130.476 126.842 130.698 126.727 130.911C125.635 132.909 124.458 134.832 123.196 136.678C121.854 138.66 120.429 140.555 118.917 142.394C113.53 148.746 107.548 154.569 101.051 159.78C100.785 160.002 100.519 160.224 100.254 160.436C99.9978 160.649 99.7433 160.852 99.4978 161.065C87.9401 170.522 75.6368 179.316 65.9928 190.651C59.8904 197.873 55.0326 206.06 51.6184 214.877C51.4956 215.199 51.3629 215.521 51.2496 215.854C51.117 216.175 50.9941 216.498 50.8803 216.831C47.5315 226.042 45.6148 235.712 45.197 245.504C45.1077 247.503 45.0779 249.505 45.1181 251.513C45.1475 253.53 45.2406 255.542 45.3977 257.547C45.4685 258.545 45.5599 259.534 45.6708 260.524C45.7794 261.554 45.908 262.585 46.0665 263.609C46.345 265.653 46.7043 267.683 47.125 269.697C47.5525 271.752 48.0614 273.793 48.6315 275.817C50.5911 282.846 53.4189 289.604 57.0495 295.933C58.4089 298.284 59.8747 300.542 61.4464 302.727C61.657 303.012 61.8669 303.307 62.0775 303.593C62.2783 303.877 62.4896 304.153 62.7009 304.428C68.956 312.745 76.6003 319.975 84.5039 326.793C105.342 344.76 131.894 363.587 135.291 393.287C136.07 400.639 134.964 408.068 132.077 414.875C129.001 413.18 125.731 411.864 122.337 410.956C111.808 408.324 100.716 409.1 90.6554 413.172C90.3459 413.301 90.0362 413.43 89.7263 413.558C89.4052 413.706 89.0847 413.844 88.7738 413.993C82.4648 416.759 77.0502 421.226 73.1359 426.894C71.9391 428.718 70.9396 430.665 70.1539 432.7C69.4248 434.609 68.8902 436.587 68.5582 438.603C68.4037 439.525 68.2866 440.479 68.2092 441.446C68.1247 442.491 68.1049 443.541 68.15 444.589C68.231 446.662 68.6039 448.713 69.2577 450.681C69.9269 452.742 70.992 454.652 72.3932 456.304C72.5881 456.528 72.7828 456.752 72.9893 456.957C75.003 458.949 77.478 460.412 80.194 461.215C82.91 462.019 85.7826 462.139 88.556 461.564C90.0933 461.279 91.602 460.858 93.0644 460.305C93.5372 460.138 94.0015 459.95 94.4572 459.741C94.9115 459.552 95.3671 459.343 95.8239 459.125C99.8431 457.086 103.583 454.537 106.95 451.542C112.591 446.635 117.832 441.286 122.623 435.546C123.323 434.713 124.013 433.869 124.694 433.014C128.126 428.734 131.071 424.085 133.472 419.153C140.289 423.731 145.752 430.053 149.294 437.461C150.544 439.98 151.578 442.601 152.386 445.295C152.519 445.685 152.631 446.084 152.744 446.483C152.986 447.322 153.206 448.179 153.397 449.035C154.57 454.139 155.003 459.385 154.684 464.613C154.592 466.22 154.419 467.832 154.178 469.419C154.117 469.856 154.047 470.282 153.967 470.707C153.079 475.801 151.447 480.736 149.124 485.355C148.809 485.985 148.475 486.613 148.131 487.231C142.048 497.956 133.034 506.725 122.145 512.51C116.536 515.547 110.537 517.8 104.315 519.203C102.44 519.633 103.016 522.581 104.911 522.152C124.682 517.659 142.944 504.501 151.95 486.375C154.555 481.151 156.326 475.552 157.2 469.781C157.221 469.612 157.254 469.444 157.266 469.274C157.341 468.768 157.406 468.271 157.461 467.764C157.64 466.203 157.741 464.626 157.791 463.045ZM120.922 432.921C116.236 438.605 111.102 443.904 105.57 448.769C103.051 451.028 100.34 453.063 97.4659 454.849C97.0365 455.109 96.5981 455.359 96.1597 455.609C95.722 455.849 95.2747 456.079 94.8281 456.298C92.3494 457.568 89.6743 458.412 86.9152 458.792C83.3687 459.259 79.7772 458.363 76.8653 456.286C74.9692 454.913 73.4755 453.057 72.5397 450.911C72.452 450.733 72.3744 450.55 72.3073 450.363C71.6271 448.582 71.234 446.703 71.1427 444.798C71.0304 442.793 71.1743 440.782 71.5709 438.814C71.8915 437.158 72.3574 435.533 72.9631 433.959C73.0978 433.608 73.242 433.267 73.3858 432.926C74.2788 430.87 75.4175 428.93 76.7769 427.148C80.405 422.509 85.108 418.823 90.4797 416.408C90.7906 416.259 91.1009 416.12 91.4213 415.982C91.7218 415.843 92.0216 415.714 92.3304 415.595C94.6074 414.659 96.9598 413.918 99.3624 413.38C110.034 410.942 121.227 412.436 130.885 417.588C128.215 423.094 124.868 428.245 120.922 432.921L120.922 432.921Z" fill="#E4E4E4"/>
<path d="M39.6278 503.297L28.4116 498.349L42.1613 452.73L58.7164 460.033L39.6278 503.297Z" fill="#FFB6B6"/>
<path d="M41.2356 499.636L29.5763 494.491L22.0102 491.155C20.1618 490.339 18.1707 489.895 16.1507 489.849C14.1307 489.803 12.1213 490.155 10.2374 490.885C8.35342 491.615 6.63181 492.709 5.17081 494.105C3.70981 495.501 2.53807 497.171 1.72249 499.019L1.52021 499.476L37.6961 515.428L44.1047 500.9L41.2356 499.636Z" fill="#2F2E41"/>
<path d="M223.977 499.721L212.994 505.169L186.754 465.399L202.964 457.359L223.977 499.721Z" fill="#FFB6B6"/>
<path d="M225.004 494.75L222.2 496.137L210.777 501.805L203.373 505.477C201.562 506.374 199.946 507.618 198.617 509.14C197.288 510.662 196.271 512.431 195.627 514.346C194.982 516.26 194.72 518.283 194.858 520.299C194.996 522.315 195.529 524.284 196.429 526.093L196.648 526.54L232.059 508.976L225.004 494.75Z" fill="#2F2E41"/>
<path d="M137.299 115.462C150.816 116.407 162.54 106.215 163.485 92.6976C164.43 79.1802 154.238 67.4562 140.721 66.5112C127.203 65.5663 115.479 75.7583 114.534 89.2757C113.589 102.793 123.781 114.517 137.299 115.462Z" fill="#FFB6B6"/>
<path d="M146.149 124.922L140.922 125.997L122.029 137.599L100.952 159.171C100.952 159.171 93.0422 171.794 94.6257 186.837C96.2092 201.881 99.7939 233.237 99.7939 233.237C99.7939 233.237 147.46 236.242 149.391 233.741C151.323 231.241 152.723 219.369 152.723 219.369L165.154 142.061C165.154 142.061 158.203 128.4 153.833 128.094C151.019 127.802 148.35 126.7 146.149 124.922Z" fill="#454146"/>
<path d="M150.458 232.814C150.458 232.814 141.256 232.622 135.014 233.943C128.773 235.263 98.1679 231.367 98.1679 231.367L77.1101 295.774L32.0614 478.154L56.6519 484.886L109.889 354.28L128.907 397.712L192.439 478.339L212.23 467.693L161.644 373.937L153.789 304.648C153.789 304.648 167.841 266.981 153.756 242.28L150.458 232.814Z" fill="#2F2E41"/>
<path opacity="0.2" d="M137.437 169.36L124.175 233.434L114.973 233.271L137.437 169.36Z" fill="black"/>
<path d="M96.7506 241.088C99.5053 241.281 101.957 238.311 102.227 234.454C102.496 230.597 100.482 227.315 97.7269 227.122C94.9722 226.93 92.5206 229.9 92.251 233.757C91.9814 237.613 93.9959 240.896 96.7506 241.088Z" fill="#2F2E41"/>
<path d="M116.32 319.308C117.435 318.307 118.326 317.066 118.93 315.672C119.535 314.278 119.838 312.765 119.818 311.239C119.798 309.714 119.457 308.214 118.817 306.843C118.177 305.473 117.255 304.267 116.115 303.309L128.365 268.406L110.295 272.956L101.432 305.403C99.9986 307.504 99.3551 310.075 99.6236 312.627C99.8922 315.179 101.054 317.535 102.889 319.249C104.724 320.963 107.105 321.915 109.581 321.926C112.056 321.937 114.454 321.006 116.32 319.308L116.32 319.308Z" fill="#FFB6B6"/>
<path d="M149.291 129.929C149.291 129.929 161.423 125.597 167.663 139.074C173.903 152.552 160.435 196.936 158.476 204.156C156.517 211.375 118.573 301.758 118.573 301.758L102.038 294.518L149.291 129.929Z" fill="#454146"/>
<path d="M172.103 53.0435C173.03 54.7187 173.48 56.6278 173.403 58.5552C173.327 60.4826 172.725 62.3515 171.668 63.9507C170.771 61.9985 169.222 60.441 167.3 59.5586C165.378 58.6762 163.21 58.5268 161.185 59.1373C159.161 59.7479 157.413 61.0782 156.256 62.8888C155.099 64.6995 154.609 66.8717 154.875 69.0144C143.36 62.8527 137.746 59.6698 125.102 62.8494C122.235 63.4861 119.488 64.5998 116.969 66.1461C114.262 67.9652 112.076 70.4899 110.635 73.4595C109.194 76.4292 108.551 79.7364 108.772 83.0399C116.329 82.9719 115.763 84.3911 123.321 84.3231L123.031 83.4795C125.646 89.3366 126.55 95.8492 125.634 102.233C124.719 108.617 122.024 114.6 117.873 119.462C116.679 120.643 115.637 121.973 114.77 123.422C114.344 124.154 114.114 124.987 114.103 125.837C114.091 126.687 114.299 127.524 114.704 128.265C115.38 129.149 116.292 129.812 117.329 130.175C119.583 131.135 122.005 131.616 124.449 131.589C126.892 131.562 129.307 131.027 131.546 130.018C133.786 129.009 135.805 127.545 137.48 125.716C139.155 123.887 140.453 121.731 141.294 119.377C140.84 123.362 140.703 128.149 143.859 130.511C145.672 131.868 148.076 131.974 150.324 132.028C156.236 132.171 162.148 132.315 168.06 132.458C165.931 130.981 165.281 127.972 165.727 125.372C166.174 122.771 167.495 120.43 168.607 118.046C174.785 104.804 171.831 90.118 165.355 77.0713C170.946 77.7172 179.438 71.8766 180.439 66.1976C180.849 63.3359 180.229 60.4227 178.695 58.002C177.161 55.5813 174.817 53.8188 172.103 53.0435Z" fill="#2F2E41"/>
<line x1="258.492" y1="54.1584" x2="229.492" y2="327.158" stroke="#35373B" stroke-width="3"/>
</svg>
