<svg width="131" height="140" viewBox="0 0 131 140" fill="none" xmlns="http://www.w3.org/2000/svg">
<rect width="131" height="140" rx="25" fill="#F7E01D"/>
<path d="M23.4205 110H18.2642V95.4545H23.4631C24.9261 95.4545 26.1856 95.7457 27.2415 96.3281C28.2973 96.9058 29.1094 97.7367 29.6776 98.821C30.2505 99.9053 30.5369 101.203 30.5369 102.713C30.5369 104.228 30.2505 105.53 29.6776 106.619C29.1094 107.708 28.2926 108.544 27.2273 109.126C26.1667 109.709 24.8977 110 23.4205 110ZM21.3395 107.365H23.2926C24.2017 107.365 24.9664 107.204 25.5866 106.882C26.2116 106.555 26.6804 106.051 26.9929 105.369C27.3101 104.683 27.4688 103.797 27.4688 102.713C27.4688 101.638 27.3101 100.76 26.9929 100.078C26.6804 99.3963 26.214 98.8944 25.5938 98.5724C24.9735 98.2505 24.2088 98.0895 23.2997 98.0895H21.3395V107.365ZM37.7298 110.213C36.6076 110.213 35.6417 109.986 34.832 109.531C34.0271 109.072 33.4068 108.423 32.9712 107.585C32.5356 106.742 32.3178 105.746 32.3178 104.595C32.3178 103.473 32.5356 102.488 32.9712 101.641C33.4068 100.793 34.02 100.133 34.8107 99.6591C35.6062 99.1856 36.5389 98.9489 37.609 98.9489C38.3287 98.9489 38.9987 99.0649 39.619 99.2969C40.244 99.5241 40.7885 99.8674 41.2525 100.327C41.7212 100.786 42.0858 101.364 42.3462 102.06C42.6067 102.751 42.7369 103.561 42.7369 104.489V105.32H33.5252V103.445H39.8888C39.8888 103.009 39.7942 102.623 39.6048 102.287C39.4154 101.951 39.1526 101.688 38.8164 101.499C38.485 101.304 38.0991 101.207 37.6587 101.207C37.1995 101.207 36.7923 101.314 36.4371 101.527C36.0868 101.735 35.8121 102.017 35.6133 102.372C35.4144 102.723 35.3126 103.113 35.3079 103.544V105.327C35.3079 105.866 35.4073 106.333 35.6062 106.726C35.8098 107.119 36.0962 107.422 36.4656 107.635C36.8349 107.848 37.2728 107.955 37.7795 107.955C38.1156 107.955 38.4234 107.907 38.7028 107.812C38.9821 107.718 39.2212 107.576 39.4201 107.386C39.619 107.197 39.7705 106.965 39.8746 106.69L42.6729 106.875C42.5309 107.547 42.2397 108.134 41.7994 108.636C41.3638 109.134 40.8003 109.522 40.109 109.801C39.4225 110.076 38.6294 110.213 37.7298 110.213ZM54.5888 99.0909L50.7749 110H47.3658L43.5518 99.0909H46.7479L49.0135 106.896H49.1271L51.3857 99.0909H54.5888ZM57.3338 110H54.0384L59.0597 95.4545H63.0227L68.0369 110H64.7415L61.098 98.7784H60.9844L57.3338 110ZM57.1278 104.283H64.9119V106.683H57.1278V104.283ZM72.7564 103.693V110H69.7308V99.0909H72.6143V101.016H72.7422C72.9837 100.381 73.3885 99.8793 73.9567 99.5099C74.5249 99.1359 75.2138 98.9489 76.0234 98.9489C76.781 98.9489 77.4415 99.1146 78.005 99.446C78.5684 99.7775 79.0064 100.251 79.3189 100.866C79.6314 101.477 79.7876 102.206 79.7876 103.054V110H76.7621V103.594C76.7668 102.926 76.5964 102.405 76.2507 102.031C75.9051 101.652 75.4292 101.463 74.8232 101.463C74.416 101.463 74.0561 101.551 73.7436 101.726C73.4358 101.901 73.1944 102.157 73.0192 102.493C72.8487 102.824 72.7611 103.224 72.7564 103.693ZM86.1921 110.178C85.3635 110.178 84.613 109.964 83.9407 109.538C83.2731 109.107 82.7428 108.475 82.3498 107.642C81.9615 106.804 81.7674 105.777 81.7674 104.56C81.7674 103.31 81.9686 102.27 82.3711 101.442C82.7736 100.608 83.3086 99.9858 83.9762 99.5739C84.6486 99.1572 85.3848 98.9489 86.185 98.9489C86.7958 98.9489 87.3048 99.053 87.712 99.2614C88.1239 99.465 88.4554 99.7206 88.7063 100.028C88.962 100.331 89.1561 100.63 89.2887 100.923H89.381V95.4545H92.3995V110H89.4165V108.253H89.2887C89.1467 108.556 88.9454 108.857 88.685 109.155C88.4293 109.448 88.0955 109.692 87.6836 109.886C87.2764 110.08 86.7792 110.178 86.1921 110.178ZM87.1509 107.77C87.6386 107.77 88.0505 107.637 88.3867 107.372C88.7276 107.102 88.988 106.726 89.168 106.243C89.3526 105.76 89.445 105.194 89.445 104.545C89.445 103.897 89.355 103.333 89.1751 102.855C88.9951 102.377 88.7347 102.008 88.3938 101.747C88.0529 101.487 87.6386 101.357 87.1509 101.357C86.6538 101.357 86.2347 101.491 85.8938 101.761C85.5529 102.031 85.2949 102.405 85.1197 102.884C84.9445 103.362 84.8569 103.916 84.8569 104.545C84.8569 105.18 84.9445 105.741 85.1197 106.229C85.2996 106.712 85.5576 107.09 85.8938 107.365C86.2347 107.635 86.6538 107.77 87.1509 107.77ZM94.8871 110V99.0909H97.8203V100.994H97.9339C98.1328 100.317 98.4666 99.8059 98.9354 99.4602C99.4041 99.1098 99.9439 98.9347 100.555 98.9347C100.706 98.9347 100.87 98.9441 101.045 98.9631C101.22 98.982 101.374 99.008 101.506 99.0412V101.726C101.364 101.683 101.168 101.645 100.917 101.612C100.666 101.579 100.436 101.562 100.228 101.562C99.7829 101.562 99.3852 101.66 99.0348 101.854C98.6892 102.043 98.4145 102.308 98.2109 102.649C98.0121 102.99 97.9126 103.383 97.9126 103.828V110H94.8871ZM107.534 110.213C106.412 110.213 105.446 109.986 104.637 109.531C103.832 109.072 103.212 108.423 102.776 107.585C102.34 106.742 102.123 105.746 102.123 104.595C102.123 103.473 102.34 102.488 102.776 101.641C103.212 100.793 103.825 100.133 104.615 99.6591C105.411 99.1856 106.344 98.9489 107.414 98.9489C108.133 98.9489 108.803 99.0649 109.424 99.2969C110.049 99.5241 110.593 99.8674 111.057 100.327C111.526 100.786 111.891 101.364 112.151 102.06C112.411 102.751 112.542 103.561 112.542 104.489V105.32H103.33V103.445H109.694C109.694 103.009 109.599 102.623 109.409 102.287C109.22 101.951 108.957 101.688 108.621 101.499C108.29 101.304 107.904 101.207 107.463 101.207C107.004 101.207 106.597 101.314 106.242 101.527C105.891 101.735 105.617 102.017 105.418 102.372C105.219 102.723 105.117 103.113 105.113 103.544V105.327C105.113 105.866 105.212 106.333 105.411 106.726C105.614 107.119 105.901 107.422 106.27 107.635C106.64 107.848 107.078 107.955 107.584 107.955C107.92 107.955 108.228 107.907 108.507 107.812C108.787 107.718 109.026 107.576 109.225 107.386C109.424 107.197 109.575 106.965 109.679 106.69L112.478 106.875C112.336 107.547 112.044 108.134 111.604 108.636C111.168 109.134 110.605 109.522 109.914 109.801C109.227 110.076 108.434 110.213 107.534 110.213Z" fill="black"/>
</svg>
